<svg width="248" height="249" viewBox="0 0 248 249" fill="none" xmlns="http://www.w3.org/2000/svg">
<circle cx="124" cy="124.214" r="81.3144" stroke="#5B93FF" stroke-opacity="0.05" stroke-width="15"/>
<path d="M87.6805 192.917C84.8149 198.337 78.0474 200.463 73.0265 196.944C65.9556 191.988 59.6287 186.016 54.258 179.204C46.59 169.479 41.0406 158.258 37.9663 146.261C34.8919 134.264 34.3606 121.757 36.4063 109.543C37.8392 100.988 40.5141 92.7089 44.3301 84.9632C47.0398 79.4631 53.9954 78.0719 59.1148 81.4461C64.2341 84.8204 65.5516 91.6822 63.0734 97.2904C60.8314 102.364 59.226 107.711 58.3049 113.21C56.7706 122.371 57.1691 131.752 59.4748 140.749C61.7806 149.747 65.9426 158.163 71.6936 165.457C75.146 169.835 79.1252 173.751 83.5311 177.121C88.4011 180.846 90.5461 187.496 87.6805 192.917Z" fill="#F24343"/>
<path d="M185.758 171.386C190.63 175.108 191.608 182.134 187.308 186.505C173.755 200.28 155.992 209.336 136.665 212.121C117.338 214.905 97.7408 211.231 80.8501 201.842C75.491 198.863 74.446 191.847 78.0698 186.901C81.6936 181.955 88.6123 180.98 94.0909 183.733C106.184 189.809 119.93 192.099 133.499 190.144C147.067 188.189 159.608 182.112 169.494 172.869C173.972 168.682 180.885 167.664 185.758 171.386Z" fill="#F4B459"/>
<g filter="url(#filter0_d_124_5)">
<path d="M124 46.501C124 40.3697 128.99 35.3277 135.073 36.0922C149.597 37.9172 163.507 43.3132 175.523 51.8717C190.567 62.5863 201.896 77.7243 207.934 95.1788C213.972 112.633 214.418 131.536 209.211 149.256C205.051 163.41 197.449 176.248 187.157 186.657C182.846 191.017 175.808 190.136 172.019 185.315C168.23 180.495 169.152 173.568 173.277 169.033C180.03 161.608 185.051 152.716 187.908 142.996C191.814 129.706 191.479 115.528 186.951 102.438C182.422 89.3466 173.925 77.9931 162.642 69.9572C154.39 64.0797 144.948 60.1909 135.051 58.5258C129.004 57.5086 124 52.6324 124 46.501Z" fill="#74C932"/>
</g>
<path d="M100.768 122.686C99.344 121.902 98.632 120.678 98.632 119.014C98.632 118.15 98.856 117.366 99.304 116.662C99.768 115.942 100.464 115.374 101.392 114.958C102.32 114.526 103.464 114.31 104.824 114.31C106.184 114.31 107.328 114.526 108.256 114.958C109.184 115.374 109.872 115.942 110.32 116.662C110.784 117.366 111.016 118.15 111.016 119.014C111.016 119.862 110.824 120.598 110.44 121.222C110.072 121.83 109.552 122.318 108.88 122.686C109.712 123.118 110.344 123.694 110.776 124.414C111.208 125.134 111.424 125.982 111.424 126.958C111.424 128.126 111.128 129.134 110.536 129.982C109.944 130.814 109.144 131.446 108.136 131.878C107.144 132.31 106.04 132.526 104.824 132.526C103.608 132.526 102.496 132.31 101.488 131.878C100.496 131.446 99.704 130.814 99.112 129.982C98.52 129.134 98.224 128.126 98.224 126.958C98.224 125.982 98.44 125.134 98.872 124.414C99.304 123.694 99.936 123.118 100.768 122.686ZM106.408 119.758C106.408 119.198 106.264 118.766 105.976 118.462C105.688 118.142 105.304 117.982 104.824 117.982C104.36 117.982 103.976 118.142 103.672 118.462C103.384 118.782 103.24 119.214 103.24 119.758C103.24 120.302 103.384 120.726 103.672 121.03C103.976 121.334 104.36 121.486 104.824 121.486C105.288 121.486 105.664 121.334 105.952 121.03C106.256 120.726 106.408 120.302 106.408 119.758ZM104.824 124.702C104.216 124.702 103.72 124.886 103.336 125.254C102.968 125.606 102.784 126.086 102.784 126.694C102.784 127.27 102.968 127.742 103.336 128.11C103.704 128.478 104.2 128.662 104.824 128.662C105.448 128.662 105.936 128.478 106.288 128.11C106.656 127.742 106.84 127.27 106.84 126.694C106.84 126.086 106.656 125.606 106.288 125.254C105.92 124.886 105.432 124.702 104.824 124.702ZM113.616 123.19C113.616 120.438 114.176 118.27 115.296 116.686C116.416 115.102 118.176 114.31 120.576 114.31C122.976 114.31 124.736 115.102 125.856 116.686C126.992 118.27 127.56 120.438 127.56 123.19C127.56 125.974 127 128.158 125.88 129.742C124.76 131.326 122.992 132.118 120.576 132.118C118.16 132.118 116.392 131.326 115.272 129.742C114.168 128.158 113.616 125.974 113.616 123.19ZM122.904 123.19C122.904 121.75 122.752 120.654 122.448 119.902C122.144 119.134 121.52 118.75 120.576 118.75C119.632 118.75 119.008 119.134 118.704 119.902C118.4 120.654 118.248 121.75 118.248 123.19C118.248 124.662 118.392 125.782 118.68 126.55C118.984 127.302 119.616 127.678 120.576 127.678C121.536 127.678 122.16 127.302 122.448 126.55C122.752 125.782 122.904 124.662 122.904 123.19ZM129.077 119.182C129.077 117.822 129.461 116.782 130.229 116.062C130.997 115.342 132.005 114.982 133.253 114.982C134.485 114.982 135.485 115.342 136.253 116.062C137.021 116.782 137.405 117.822 137.405 119.182C137.405 120.526 137.021 121.566 136.253 122.302C135.485 123.022 134.485 123.382 133.253 123.382C132.021 123.382 131.013 123.022 130.229 122.302C129.461 121.566 129.077 120.526 129.077 119.182ZM146.117 115.246L137.021 132.214H132.509L141.605 115.246H146.117ZM133.229 117.742C132.573 117.742 132.245 118.222 132.245 119.182C132.245 120.142 132.573 120.622 133.229 120.622C133.549 120.622 133.797 120.502 133.973 120.262C134.165 120.022 134.261 119.662 134.261 119.182C134.261 118.702 134.165 118.342 133.973 118.102C133.797 117.862 133.549 117.742 133.229 117.742ZM141.221 128.254C141.221 126.91 141.605 125.878 142.373 125.158C143.157 124.422 144.165 124.054 145.397 124.054C146.629 124.054 147.621 124.422 148.373 125.158C149.141 125.878 149.525 126.91 149.525 128.254C149.525 129.614 149.141 130.662 148.373 131.398C147.621 132.118 146.629 132.478 145.397 132.478C144.165 132.478 143.157 132.118 142.373 131.398C141.605 130.662 141.221 129.614 141.221 128.254ZM145.373 126.814C144.701 126.814 144.365 127.294 144.365 128.254C144.365 129.23 144.701 129.718 145.373 129.718C145.677 129.718 145.917 129.598 146.093 129.358C146.285 129.102 146.381 128.734 146.381 128.254C146.381 127.79 146.285 127.438 146.093 127.198C145.917 126.942 145.677 126.814 145.373 126.814Z" fill="black"/>
<defs>
<filter id="filter0_d_124_5" x="120" y="36.0153" width="96.8144" height="161.464" filterUnits="userSpaceOnUse" color-interpolation-filters="sRGB">
<feFlood flood-opacity="0" result="BackgroundImageFix"/>
<feColorMatrix in="SourceAlpha" type="matrix" values="0 0 0 0 0 0 0 0 0 0 0 0 0 0 0 0 0 0 127 0" result="hardAlpha"/>
<feOffset dy="4"/>
<feGaussianBlur stdDeviation="2"/>
<feColorMatrix type="matrix" values="0 0 0 0 0.356863 0 0 0 0 0.576471 0 0 0 0 1 0 0 0 0.24 0"/>
<feBlend mode="normal" in2="BackgroundImageFix" result="effect1_dropShadow_124_5"/>
<feBlend mode="normal" in="SourceGraphic" in2="effect1_dropShadow_124_5" result="shape"/>
</filter>
</defs>
</svg>
