<svg width="155" height="155" viewBox="0 0 155 155" fill="none" xmlns="http://www.w3.org/2000/svg">
<path d="M130.083 114.79C149.218 96.1829 150.197 67.6501 115.657 35.6519C110.647 31 108.199 24.5213 103.227 21.0371C88.1598 10.4715 67.0097 12.6185 53.6944 28.3068C46.4058 36.8949 43.4678 48.6847 35.8967 57.1033C27.4028 66.5577 17.2327 75.7485 13.3718 88.6306C10.8104 97.1622 11.2436 106.466 14.1628 114.809C56.1239 122.267 95.7874 124.565 130.083 114.79Z" fill="#8C59BF" fill-opacity="0.3"/>
<path d="M114.828 96.8044C114.828 96.8044 112.342 111.984 121.683 115.544C131.025 119.103 128.671 111.721 128.671 111.721C128.671 111.721 132.268 110.478 121.74 105.355C116.787 102.944 114.828 96.8044 114.828 96.8044Z" fill="#2A94F4"/>
<path d="M126.957 116.504C126.957 116.504 140.14 116.598 143.022 98.8949C145.885 81.1914 152.57 77.839 152.57 77.839C152.57 77.839 123.906 81.1914 126.957 116.504Z" fill="#0E538C"/>
<path d="M126.561 116.033C129.631 120.591 137.296 106.673 134.848 97.6895C132.4 88.6871 127.597 83.2819 127.541 76.9162C127.541 76.8973 111.438 93.6215 126.561 116.033Z" fill="#8C59BF"/>
<path d="M3.55954 100.609C3.55954 100.609 6.89307 115.619 16.8937 115.45C26.8943 115.28 21.9599 109.291 21.9599 109.291C21.9599 109.291 24.8414 106.786 13.1646 105.957C7.66525 105.581 3.55954 100.609 3.55954 100.609Z" fill="#2A94F4"/>
<path d="M21.2819 114.659C21.2819 114.659 31.3955 111.495 28.2691 100.289C25.1616 89.0826 29.2485 85.4666 29.2485 85.4666C29.2485 85.4666 8.3621 94.4502 21.2819 114.659Z" fill="#8C59BF"/>
<path d="M20.2649 114.282C24.8038 117.371 26.7625 101.607 21.1312 94.1677C15.5188 86.7284 9.0401 83.4891 6.6294 77.5942C6.6294 77.5942 -2.10936 99.1209 20.2649 114.282Z" fill="#0E538C"/>
<path d="M71.5863 114.772L73.9593 117.823C73.9593 117.823 70.7764 121.363 71.8311 121.043C72.9046 120.704 78.7619 115.996 78.7619 115.996C78.7619 115.996 75.9368 112.191 75.9745 112.173C76.031 112.154 71.5863 114.772 71.5863 114.772Z" fill="#0B4870"/>
<path d="M68.1021 91.8888L78.1403 113.039L71.7558 116.636L61.322 97.6896L61.9812 91.4557L68.1021 91.8888Z" fill="#0B4870"/>
<path d="M94.1112 98.0474L101.626 123.642L102.492 123.623L96.7102 97.8967L94.1112 98.0474Z" fill="#D3D3D3"/>
<path d="M80.5322 98.4617L74.8068 123.793L75.8238 123.774L83.4891 98.3864L80.5322 98.4617Z" fill="#D3D3D3"/>
<path d="M87.2181 97.746L88.1033 123.491L89.3086 123.473L89.836 97.7837L87.2181 97.746Z" fill="#D3D3D3"/>
<path d="M80.2685 108.669L97.4259 107.765L97.5389 109.536L78.969 110.647L80.2685 108.669Z" fill="#D3D3D3"/>
<path opacity="0.15" d="M80.5134 98.4617L80.2497 99.7612L83.0936 99.7047L83.4514 98.4052L80.5134 98.4617Z" fill="#D3D3D3"/>
<path opacity="0.15" d="M87.2369 98.3676L87.2746 99.6106L89.7983 99.5541L89.836 98.0662L87.2369 98.3676Z" fill="#D3D3D3"/>
<path opacity="0.5" d="M87.5759 108.199L87.6324 110.044L86.5401 110.063L86.1258 108.274L87.8585 108.18" fill="#D3D3D3"/>
<path opacity="0.5" d="M89.7983 108.18V110.007L90.627 109.95L90.853 108.123L89.7983 108.18Z" fill="#D3D3D3"/>
<path d="M74.6185 96.616C77.048 95.4295 86.8979 96.0699 86.8979 96.0699C86.8979 96.0699 84.1106 61.548 87.7078 61.2655C91.305 60.983 99.4411 58.4028 100.91 63.6197C102.454 69.1002 100.364 98.4429 98.3111 98.1604C93.6215 97.5201 79.1197 99.1962 74.7503 98.1604C73.6391 97.8967 74.6185 96.616 74.6185 96.616Z" fill="#8C59BF"/>
<path d="M97.8214 64.2224C97.8402 64.2224 97.8967 64.3165 98.0286 64.5049C98.0851 64.599 98.1604 64.712 98.2357 64.8627C98.3111 65.0134 98.3864 65.1829 98.4806 65.3712C98.8196 66.1434 99.1774 67.3487 99.3281 68.8554C99.4976 70.3621 99.4976 72.1701 99.4787 74.1665C99.4411 76.1628 99.3281 78.3475 99.1397 80.6452C98.9514 82.9429 98.7442 85.1276 98.5371 87.1051C98.3299 89.0826 98.1227 90.8718 97.859 92.3597C97.5954 93.8475 97.2375 95.034 96.955 95.825C96.6725 96.616 96.4465 97.0304 96.4277 97.0304C96.39 97.0115 96.5407 96.5784 96.7667 95.7685C96.9927 94.9587 97.2752 93.791 97.5012 92.3032C97.7272 90.8153 97.8967 89.0449 98.0662 87.0674C98.2546 85.0899 98.4617 82.9052 98.6312 80.6264C98.8007 78.3475 98.9514 76.1628 99.0079 74.1665C99.0644 72.1889 99.1021 70.3997 98.9702 68.9119C98.8572 67.4241 98.5747 66.2375 98.2922 65.4654C98.0097 64.6555 97.7837 64.2412 97.8214 64.2224Z" fill="#EAA43F"/>
<path d="M61.3408 76.6337L60.4368 76.1628C60.4368 76.1628 59.853 75.9556 58.9113 75.3906C58.6665 75.24 58.4405 75.0516 58.271 74.8445C58.045 74.5808 57.7625 74.223 57.6495 73.9781C57.5176 73.6768 57.1221 73.658 57.0468 73.9216C56.9903 74.1853 57.3104 75.014 58.0638 75.7485C58.8171 76.483 57.2351 76.257 56.6513 76.2005C56.0674 76.1252 54.2782 75.9933 54.1276 76.1628C53.9204 76.3888 54.1464 76.6902 54.7303 76.7467C55.3141 76.8032 57.0468 77.1045 57.0279 77.4058C57.0091 77.7072 54.0522 77.3117 54.0522 77.3117C54.0522 77.3117 53.4307 77.1233 53.3931 77.4812C53.3177 78.1027 56.4629 78.3098 56.7643 78.3098C56.9714 78.3098 56.9526 78.6488 56.7266 78.63C56.5006 78.6112 53.7886 78.1592 53.7132 78.7995C53.6567 79.2892 56.2934 78.9879 56.8396 79.3834C57.3858 79.7789 54.7868 79.4022 54.7491 79.873C54.7303 80.0425 54.7491 80.1744 56.2369 80.1932C57.7625 80.1932 61.8682 79.534 61.8682 79.534L61.2843 76.6337" fill="#FFBA98"/>
<path d="M81.5115 64.3354C81.5115 64.3354 73.8086 74.6938 72.0383 75.1458C70.2679 75.6166 60.1543 76.2193 60.1543 76.2193L59.2503 80.5887C59.2503 80.5887 72.1889 81.2667 75.0328 79.1762C79.5152 75.8803 84.2047 68.2716 84.2047 68.2716C84.3554 65.7667 83.3949 64.5237 81.5115 64.3354Z" fill="#F7F7F7"/>
<path d="M60.5686 118.576L61.0583 122.418C61.0583 122.418 56.5006 123.849 57.5929 124.113C58.6853 124.377 66.1245 123.303 66.1245 123.303C66.1245 123.303 65.616 118.595 65.6725 118.595C65.729 118.576 60.5686 118.576 60.5686 118.576Z" fill="#0E538C"/>
<path d="M91.8323 83.6962C91.8323 83.6962 96.1264 92.8682 87.6513 96.0322L83.1312 86.2199L91.8323 83.6962Z" fill="#0E538C"/>
<path d="M85.9374 86.1446C85.9374 86.1446 61.4915 79.421 58.7418 85.0711C55.9921 90.7023 59.2691 120.064 59.2691 120.064L66.9155 119.254C66.9155 119.254 65.6349 93.4708 66.9155 92.5668C68.1962 91.6628 85.8056 96.1075 87.6513 96.0322C92.1525 95.8439 95.3353 87.4441 85.9374 86.1446Z" fill="#0E538C"/>
<path d="M86.4648 61.5668C83.2631 61.6422 80.6452 64.1847 80.4945 67.3864C80.3627 70.0607 80.6264 73.7144 79.9107 76.935C79.534 78.5923 77.3682 85.2594 77.3682 85.2594L79.534 85.6172C82.8864 86.1823 86.3329 86.0127 89.61 85.1276L92.0772 84.4684C92.0772 84.4684 93.5085 77.048 94.2995 70.0796C94.9775 64.26 93.8663 62 90.3256 61.4915L86.4648 61.5668Z" fill="#F7F7F7"/>
<path d="M84.7697 61.9812C84.8827 61.4162 84.6944 59.0431 84.6944 59.0431C84.6944 59.0431 82.5285 58.7606 82.4532 56.6136C82.359 54.4666 82.6039 49.5134 82.6039 49.5134L86.5966 47.6677L90.8718 51.0389L91.2673 53.4119L90.2691 56.2369L89.8171 61.6233L84.7697 61.9812Z" fill="#B97A59"/>
<path d="M84.6944 59.0431C84.6944 59.0431 86.1446 59.0808 87.5571 58.1391C87.5571 58.1391 86.8791 59.7023 84.7321 59.5705L84.6944 59.0431Z" fill="#A0654B"/>
<path d="M79.9672 83.9599L78.9502 83.9034C78.9502 83.9034 78.3287 83.9599 77.2363 83.8281C76.9538 83.7904 76.6713 83.7151 76.4077 83.6021C76.0875 83.4514 75.6731 83.2442 75.4848 83.0747C75.24 82.8487 74.8633 82.9994 74.9198 83.2819C74.9763 83.5644 75.6166 84.1671 76.6148 84.5249C77.613 84.8828 76.0687 85.3536 75.5225 85.5231C74.9763 85.6926 73.2813 86.3329 73.2248 86.5401C73.1306 86.8414 73.4696 87.0109 74.0158 86.8226C74.5808 86.6343 76.257 86.1634 76.37 86.4459C76.4642 86.7284 73.6391 87.5948 73.6391 87.5948C73.6391 87.5948 72.9988 87.6889 73.1118 88.028C73.319 88.6306 76.2382 87.4818 76.5207 87.3688C76.709 87.2934 76.8408 87.5948 76.6337 87.6701C76.4077 87.7455 73.771 88.48 73.9781 89.0826C74.1288 89.5535 76.4077 88.1598 77.0668 88.3105C77.726 88.4423 75.2211 89.1956 75.3718 89.6288C75.4283 89.7983 75.5036 89.9113 76.8597 89.2898C78.2533 88.6495 81.681 86.3329 81.681 86.3329L79.9295 83.9411" fill="#B97A59"/>
<path d="M83.037 85.9374C83.037 85.9374 87.8396 84.5626 90.8906 81.7187C93.3202 79.4587 93.2825 77.3493 93.2825 77.3493L94.4313 68.5352L83.037 85.9374Z" fill="#D3D3D3"/>
<path d="M89.723 62.2448C89.723 62.2448 88.8001 75.127 87.5571 76.4642C86.3141 77.8013 78.1215 83.7527 78.1215 83.7527L79.7224 87.9338C79.7224 87.9338 90.9848 81.5304 92.2655 78.2345C93.791 74.2418 94.0735 68.0267 94.1112 65.3712C94.13 64.2412 93.678 63.1488 92.7928 62.452C91.87 61.7175 90.8341 61.6798 89.723 62.2448Z" fill="#F7F7F7"/>
<path d="M95.9757 96.9739C95.938 97.1245 93.7157 96.7667 90.9283 96.5407C88.1598 96.3147 85.8809 96.2959 85.8809 96.1452C85.8809 96.0134 88.1598 95.8062 90.966 96.0322C93.791 96.277 96.0134 96.842 95.9757 96.9739Z" fill="#EAA43F"/>
<path d="M95.1282 74.336C95.1094 74.3548 95.0152 74.336 94.9775 74.1853C94.9398 74.0535 95.0152 73.8275 95.2035 73.6956C95.2977 73.6203 95.4484 73.5638 95.6179 73.5826C95.712 73.6015 95.7874 73.6203 95.8627 73.658C95.938 73.6956 95.9945 73.7521 96.051 73.8086C96.277 74.0723 96.3335 74.4301 96.2017 74.788C96.0699 75.127 95.8062 75.3718 95.486 75.4471C95.4107 75.466 95.3165 75.466 95.2412 75.466C95.1659 75.466 95.0717 75.4283 95.0152 75.3906C94.8833 75.3153 94.7892 75.2023 94.7515 75.0893C94.6573 74.8821 94.6762 74.6561 94.7704 74.5431C94.8457 74.4301 94.9399 74.4301 94.9587 74.449C94.9775 74.4678 94.9587 74.5431 94.9587 74.6185C94.9587 74.6938 94.9775 74.8068 95.0717 74.901C95.1093 74.9575 95.1659 74.9951 95.2224 75.014C95.26 75.014 95.2789 75.0328 95.2977 75.014C95.3354 75.014 95.373 75.014 95.3919 74.9951C95.5237 74.9575 95.6932 74.8068 95.7497 74.6185C95.8062 74.449 95.7874 74.223 95.712 74.11C95.6179 73.9781 95.5425 73.9593 95.4107 73.997C95.2977 74.0346 95.2224 74.1288 95.1847 74.1853C95.147 74.2418 95.1659 74.3171 95.1282 74.336Z" fill="#EAA43F"/>
<path d="M89.271 66.3129C89.3086 66.3129 89.3275 66.6142 89.3275 67.1416C89.3275 67.6689 89.3086 68.4599 89.2521 69.4016C89.1768 70.3621 89.0638 71.5109 88.7813 72.7539C88.4988 73.997 88.0091 75.353 87.1993 76.6148C86.3706 77.8578 85.3159 78.8372 84.3178 79.6282C83.3196 80.4192 82.3591 81.0407 81.5681 81.5869C79.986 82.6604 79.082 83.4137 79.0444 83.3572C79.0255 83.3384 79.2327 83.1124 79.6282 82.7546C80.0237 82.3967 80.6264 81.907 81.3986 81.3232C82.1707 80.7394 83.0936 80.099 84.0729 79.308C85.0334 78.517 86.0504 77.5565 86.8226 76.37C87.5948 75.1646 88.0845 73.8651 88.367 72.6598C88.6683 71.4544 88.819 70.3244 88.932 69.3827C89.1391 67.4994 89.2145 66.3129 89.271 66.3129Z" fill="#D3D3D3"/>
<path d="M86.6719 62.3013L86.8414 60.3803L89.9678 59.8153L90.9095 61.8493L86.6719 62.3013Z" fill="#D3D3D3"/>
<path d="M84.6944 60.1543L85.9374 60.3803V62.3013L84.3742 61.9812L84.7509 59.8153" fill="#D3D3D3"/>
<path d="M80.9465 69.1191C80.9465 71.1343 80.7017 73.1306 80.212 75.0893L80.9465 69.1191Z" fill="#D3D3D3"/>
<path d="M111.513 82.6604H32.7704V85.2406H111.513V82.6604Z" fill="#254368"/>
<path d="M38.9289 85.2406L32.7704 123.962L35.8402 124.019L46.4247 85.2406H38.9289Z" fill="#254368"/>
<path d="M105.788 84.8074L109.366 124.772H106.485L98.7442 86.4648L98.3487 83.6209L105.788 84.8074Z" fill="#254368"/>
<path opacity="0.3" d="M98.5747 85.2406L98.8572 87.0109L105.957 86.7473L105.826 85.2406H98.5747Z" fill="#000C38"/>
<path opacity="0.3" d="M38.9289 85.2406L38.6464 87.0674L45.9727 86.8603L46.4247 85.2406H38.9289Z" fill="#000C38"/>
<path d="M44.5602 68.3281L49.4757 82.6604H71.6804L71.5109 81.9259L62.5273 81.6434L58.4028 68.3281H44.5602Z" fill="#D3D3D3"/>
<path d="M54.4101 75.2588C54.5608 75.8427 54.2971 76.4265 53.8451 76.5395C53.3931 76.6525 52.9034 76.2758 52.7527 75.692C52.6021 75.1082 52.8657 74.5243 53.3177 74.4113C53.7697 74.2983 54.2594 74.675 54.4101 75.2588Z" fill="#F7F7F7"/>
<path d="M98.8949 78.1968C98.2357 75.9557 97.9344 72.8104 97.7649 70.4939C97.7272 70.0419 97.7084 69.5522 97.8779 69.1379C98.0474 68.7047 98.4429 68.3281 98.8949 68.3469C99.2716 68.3469 99.6294 68.6294 99.8177 68.9496C100.006 69.2886 100.081 69.6652 100.157 70.0419C100.571 72.2078 101.004 74.3548 101.419 76.5207C101.814 75.7485 102.36 75.0516 102.982 74.4678C103.264 74.2041 103.679 73.9405 104.018 74.1288C104.319 74.2983 104.357 74.7126 104.338 75.0705C104.3 76.1252 104.168 77.1798 103.942 78.2157" fill="#2A94F4"/>
<path d="M97.9909 77.9708C97.9909 77.9708 96.8797 82.3591 101.362 82.5662C105.487 82.7546 104.507 77.9708 104.507 77.9708H97.9909Z" fill="#0E538C"/>
<path d="M87.5571 51.5097C87.5571 51.5097 87.5948 51.5286 87.6513 51.5662C87.7078 51.6039 87.802 51.6604 87.915 51.7546C88.1221 51.9241 88.3858 52.2631 88.4611 52.7527C88.4988 52.9976 88.4988 53.2801 88.4046 53.5437C88.3105 53.8262 88.1598 54.0899 87.8961 54.3159C87.7831 54.4289 87.6325 54.5231 87.4818 54.5984C87.3311 54.6738 87.1616 54.7303 86.9733 54.7491C86.6154 54.8056 86.2388 54.7303 85.8998 54.5608C85.5608 54.3724 85.2971 54.0899 85.1464 53.7698C85.0711 53.6002 85.0146 53.4307 84.9958 53.2612C84.9769 53.0917 84.9769 52.9222 84.9958 52.7527C85.0334 52.4326 85.1841 52.1312 85.3724 51.9052C85.5608 51.6792 85.7868 51.5286 86.0128 51.4156C86.4648 51.2084 86.8979 51.2649 87.1428 51.3402C87.2746 51.3779 87.3688 51.4156 87.4253 51.4532C87.5195 51.4909 87.5571 51.5097 87.5571 51.5097C87.5571 51.5286 87.4253 51.4344 87.1616 51.3779C86.8979 51.3214 86.5024 51.2837 86.0693 51.4909C85.8621 51.5851 85.6361 51.7357 85.4666 51.9617C85.2971 52.1877 85.1653 52.4514 85.1276 52.7527C85.1088 52.9034 85.1088 53.0729 85.1276 53.2236C85.1464 53.3931 85.2029 53.5438 85.2783 53.6944C85.4101 53.9958 85.6738 54.2594 85.9751 54.4478C86.2953 54.6173 86.6531 54.6738 86.9921 54.6361C87.1616 54.6173 87.3123 54.5608 87.4629 54.5043C87.6136 54.4289 87.7455 54.3536 87.8585 54.2406C88.1033 54.0334 88.254 53.7698 88.3481 53.5061C88.4423 53.2424 88.4423 52.9787 88.4046 52.7527C88.3293 52.2819 88.0845 51.9429 87.8961 51.7734C87.689 51.5851 87.5571 51.5286 87.5571 51.5097Z" fill="#0B4870"/>
<path d="M82.7545 51.1707C82.7545 51.1707 82.7922 51.1707 82.8675 51.1707C82.9429 51.1707 83.0371 51.1896 83.1689 51.2272C83.4326 51.3026 83.8092 51.4721 84.1106 51.8676C84.2612 52.0747 84.3742 52.3196 84.4119 52.6021C84.4496 52.8846 84.4307 53.2047 84.3177 53.5249C84.2612 53.6756 84.1671 53.8263 84.0729 53.9581C83.9599 54.0899 83.8469 54.2218 83.6962 54.3159C83.3949 54.5231 83.037 54.6361 82.6415 54.6173C82.2649 54.5984 81.907 54.4666 81.6245 54.2406C81.4739 54.1276 81.3609 53.9958 81.2667 53.8639C81.1725 53.7132 81.0972 53.5626 81.0407 53.4119C80.9277 53.0917 80.9465 52.7716 81.003 52.4891C81.0595 52.2066 81.2102 51.9617 81.3609 51.7734C81.681 51.3967 82.0765 51.2461 82.3402 51.1896C82.472 51.1707 82.585 51.1519 82.6604 51.1707C82.7169 51.1519 82.7545 51.1707 82.7545 51.1707C82.7545 51.1896 82.6039 51.1707 82.3402 51.2272C82.0765 51.2837 81.6999 51.4532 81.3985 51.8111C81.2479 51.9994 81.116 52.2254 81.0595 52.5079C81.003 52.7716 81.003 53.0917 81.0972 53.3742C81.1349 53.5249 81.2102 53.6756 81.3044 53.8074C81.3985 53.9393 81.5115 54.0711 81.6434 54.1653C81.907 54.3724 82.246 54.5043 82.6039 54.5231C82.9617 54.5231 83.3196 54.4289 83.5832 54.2406C83.7151 54.1464 83.8469 54.0334 83.9411 53.9016C84.0352 53.7698 84.1294 53.6379 84.1859 53.4872C84.2989 53.2047 84.3366 52.9034 84.2989 52.6209C84.2612 52.3384 84.1482 52.1124 84.0164 51.9052C83.7339 51.5097 83.3761 51.3214 83.1312 51.2461C82.9052 51.1707 82.7545 51.1707 82.7545 51.1707Z" fill="#0B4870"/>
<path d="M84.3554 53.0541C84.3554 53.0352 84.5249 53.0164 84.7321 53.0164C84.9392 53.0164 85.0899 53.0541 85.0899 53.0729C85.0899 53.0917 84.9204 53.1106 84.7132 53.1106C84.5061 53.1106 84.3366 53.0917 84.3554 53.0541Z" fill="#0B4870"/>
<path d="M88.3669 53.2047C88.3669 53.1859 88.7624 53.1671 89.2521 53.1859C89.7418 53.2047 90.1373 53.2424 90.1373 53.2612C90.1373 53.2801 89.7418 53.2989 89.2521 53.2801C88.7624 53.2612 88.3669 53.2236 88.3669 53.2047Z" fill="#0B4870"/>
<path d="M90.1185 56.5948C91.2673 55.3329 91.3803 53.5061 91.3991 51.7922C91.418 50.9636 91.3615 50.116 90.9471 49.4004C90.5328 48.7035 89.8171 48.2515 89.0826 47.9314C87.9526 47.4417 86.6719 47.2157 85.4666 47.4417C84.2612 47.6677 83.1124 48.3834 82.5097 49.4569C82.5097 49.4569 88.1033 49.3439 88.4799 49.5699C88.8566 49.7959 90.0055 50.6057 89.9113 51.6039C89.8171 52.6021 89.5346 54.0711 89.5346 54.0711L90.4386 53.9392C90.4386 53.9392 90.3633 52.5832 90.7588 52.6209C91.1355 52.6962 90.1185 56.5948 90.1185 56.5948Z" fill="#0E538C"/>
<path d="M90.3821 54.2783C90.4198 54.4289 90.5893 54.5419 90.7588 54.5231C90.9283 54.5231 91.079 54.4289 91.2108 54.3348C91.4745 54.1276 91.7005 53.8262 91.7382 53.4872C91.7758 53.1482 91.6252 52.7716 91.3427 52.6021C91.0413 52.4326 90.6081 52.5079 90.4386 52.8092L90.3821 54.2783Z" fill="#B97A59"/>
</svg>
